<svg width="402" height="308" viewBox="0 0 402 308" fill="none" xmlns="http://www.w3.org/2000/svg">
<g clip-path="url(#clip0)">
<path d="M18.6796 293.492C24.2557 302.983 36.0903 307.057 36.0903 307.057C36.0903 307.057 38.8841 295.743 33.308 286.252C27.7319 276.761 15.8973 272.687 15.8973 272.687C15.8973 272.687 13.1034 284 18.6796 293.492Z" fill="#2F2E41"/>
<path d="M22.5122 290.369C32.5795 295.928 36.4567 306.969 36.4567 306.969C36.4567 306.969 24.0117 308.998 13.9444 303.439C3.87721 297.88 0 286.839 0 286.839C0 286.839 12.445 284.81 22.5122 290.369Z" fill="#FFD037"/>
<path d="M248.221 14.7861H185.408V15.6097H248.221V14.7861Z" fill="#F2F2F2"/>
<path d="M231.172 15.4038H230.274V23.0217H231.172V15.4038Z" fill="#F2F2F2"/>
<path d="M203.803 15.4038H202.906V23.0217H203.803V15.4038Z" fill="#F2F2F2"/>
<path d="M280.076 54.3171H217.263V55.1406H280.076V54.3171Z" fill="#F2F2F2"/>
<path d="M235.21 46.905H234.312V54.5229H235.21V46.905Z" fill="#F2F2F2"/>
<path d="M262.578 46.905H261.681V54.5229H262.578V46.905Z" fill="#F2F2F2"/>
<path d="M363.527 72.8472H300.714V73.6707H363.527V72.8472Z" fill="#F2F2F2"/>
<path d="M318.661 65.4351H317.763V73.053H318.661V65.4351Z" fill="#F2F2F2"/>
<path d="M346.029 65.4351H345.132V73.053H346.029V65.4351Z" fill="#F2F2F2"/>
<path d="M357.245 263.913H294.433V264.737H357.245V263.913Z" fill="#F2F2F2"/>
<path d="M312.379 256.501H311.482V264.119H312.379V256.501Z" fill="#F2F2F2"/>
<path d="M339.748 256.501H338.85V264.119H339.748V256.501Z" fill="#F2F2F2"/>
<path d="M250.015 131.732H187.203V132.555H250.015V131.732Z" fill="#F2F2F2"/>
<path d="M205.149 124.32H204.252V131.938H205.149V124.32Z" fill="#F2F2F2"/>
<path d="M232.518 124.32H231.62V131.938H232.518V124.32Z" fill="#F2F2F2"/>
<path d="M269.757 230.971H206.944V231.794H269.757V230.971Z" fill="#F2F2F2"/>
<path d="M224.891 223.559H223.993V231.177H224.891V223.559Z" fill="#F2F2F2"/>
<path d="M252.259 223.559H251.362V231.177H252.259V223.559Z" fill="#F2F2F2"/>
<path d="M370.257 200.911H307.444V201.734H370.257V200.911Z" fill="#F2F2F2"/>
<path d="M325.39 193.499H324.493V201.117H325.39V193.499Z" fill="#F2F2F2"/>
<path d="M352.759 193.499H351.862V201.117H352.759V193.499Z" fill="#F2F2F2"/>
<path d="M162.442 289.146H56.2055V288.444H161.678V254.423H65.1366L60.4467 245.456L61.1359 245.152L65.6175 253.721H162.442V289.146Z" fill="#2F2E41"/>
<path d="M70.3448 306.332C74.777 306.332 78.3699 303.034 78.3699 298.966C78.3699 294.898 74.777 291.601 70.3448 291.601C65.9127 291.601 62.3198 294.898 62.3198 298.966C62.3198 303.034 65.9127 306.332 70.3448 306.332Z" fill="#3F3D56"/>
<path d="M149.449 306.332C153.881 306.332 157.474 303.034 157.474 298.966C157.474 294.898 153.881 291.601 149.449 291.601C145.017 291.601 141.424 294.898 141.424 298.966C141.424 303.034 145.017 306.332 149.449 306.332Z" fill="#3F3D56"/>
<path d="M242.693 147.099C245.436 147.099 247.661 145.057 247.661 142.539C247.661 140.021 245.436 137.979 242.693 137.979C239.949 137.979 237.725 140.021 237.725 142.539C237.725 145.057 239.949 147.099 242.693 147.099Z" fill="#3F3D56"/>
<path d="M173.805 242.849H54.3942L28.5565 165.337H200.413L200.257 165.793L173.805 242.849ZM54.9595 242.147H173.244L199.371 166.038H29.5895L54.9595 242.147Z" fill="#2F2E41"/>
<path d="M164.483 238.815H59.601L36.9068 170.072H187.855L187.717 170.476L164.483 238.815Z" fill="#F2F2F2"/>
<path d="M202.555 158.412L201.816 158.232L206.859 140.785H236.197V141.487H207.447L202.555 158.412Z" fill="#2F2E41"/>
<path d="M191.826 188.836H36.9061V189.537H191.826V188.836Z" fill="#2F2E41"/>
<path d="M182.954 214.679H45.5206V215.381H182.954V214.679Z" fill="#2F2E41"/>
<path d="M114.865 165.687H114.101V242.498H114.865V165.687Z" fill="#2F2E41"/>
<path d="M149.084 165.665L143.597 242.474L144.36 242.52L149.846 165.711L149.084 165.665Z" fill="#2F2E41"/>
<path d="M79.8978 165.665L79.1349 165.71L84.5895 242.521L85.3523 242.475L79.8978 165.665Z" fill="#2F2E41"/>
<path d="M402 306.776H0V307.6H402V306.776Z" fill="#2F2E41"/>
<path d="M267.137 25.4793C267.137 25.4793 273.696 42.612 269.66 45.2478C265.624 47.8836 283.282 69.4092 283.282 69.4092L304.472 64.1376L292.868 46.1264C292.868 46.1264 291.354 28.1151 291.354 25.4793C291.354 22.8435 267.137 25.4793 267.137 25.4793Z" fill="#A0616A"/>
<path opacity="0.1" d="M267.137 25.4793C267.137 25.4793 273.696 42.612 269.66 45.2478C265.624 47.8836 283.282 69.4092 283.282 69.4092L304.472 64.1376L292.868 46.1264C292.868 46.1264 291.354 28.1151 291.354 25.4793C291.354 22.8435 267.137 25.4793 267.137 25.4793Z" fill="black"/>
<path d="M256.129 147.604C256.129 147.604 254.214 169.569 256.129 180.991C258.043 192.413 260.915 224.042 260.915 224.042C260.915 224.042 260.915 283.787 271.445 284.665C281.975 285.544 289.634 286.423 290.591 282.908C291.548 279.394 285.804 277.637 288.676 275.88C291.548 274.122 292.505 267.972 288.676 260.943C284.847 253.915 288.676 182.748 288.676 182.748L306.865 227.557C306.865 227.557 308.779 264.458 310.694 269.729C312.609 275.001 308.779 284.665 315.48 285.544C322.181 286.423 329.84 281.151 333.669 279.394C337.498 277.637 327.925 277.637 329.84 276.758C331.754 275.879 337.498 273.244 335.583 272.365C333.669 271.487 331.754 229.314 331.754 229.314C331.754 229.314 326.489 139.258 319.788 135.743C313.087 132.229 308.779 138.282 308.779 138.282L256.129 147.604Z" fill="#2F2E41"/>
<path d="M273.36 281.151V288.18C273.36 288.18 264.744 307.286 273.36 307.286C281.975 307.286 288.676 309.266 288.676 306.63V282.908L273.36 281.151Z" fill="#2F2E41"/>
<path d="M329.84 281.139V288.167C329.84 288.167 338.455 307.274 329.84 307.274C321.224 307.274 314.523 309.254 314.523 306.618V282.896L329.84 281.139Z" fill="#2F2E41"/>
<path d="M280.539 38.219C290.056 38.219 297.771 31.1385 297.771 22.4042C297.771 13.67 290.056 6.58948 280.539 6.58948C271.023 6.58948 263.308 13.67 263.308 22.4042C263.308 31.1385 271.023 38.219 280.539 38.219Z" fill="#A0616A"/>
<path d="M275.274 51.8372C275.274 51.8372 280.061 65.0162 287.719 62.3804L295.377 59.7446L308.779 144.09C308.779 144.09 298.249 158.147 282.933 149.362C267.616 140.576 275.274 51.8372 275.274 51.8372Z" fill="#FFD037"/>
<path d="M288.676 49.2015L292.984 40.8548C292.984 40.8548 318.352 51.8373 322.181 55.3517C326.011 58.866 326.01 64.1376 326.01 64.1376L319.31 86.1026C319.31 86.1026 321.224 134.425 321.224 136.183C321.224 137.94 327.925 147.604 323.139 144.09C318.352 140.576 317.395 137.061 313.566 142.333C309.737 147.604 301.121 153.755 301.121 153.755L288.676 49.2015Z" fill="#3F3D56"/>
<path d="M322.181 112.46L319.309 137.061C319.309 137.061 302.078 151.119 305.907 151.997C309.737 152.876 311.651 149.362 311.651 149.362C311.651 149.362 318.352 155.512 322.181 151.997C326.011 148.483 335.583 115.096 335.583 115.096L322.181 112.46Z" fill="#A0616A"/>
<path d="M280.906 0.0534784C277.087 -0.0718553 272.999 -0.133853 269.778 1.75545C268.296 2.70362 266.996 3.87137 265.932 5.21092C262.795 8.85043 260.085 13.4298 261.25 17.9454L262.603 17.461C262.603 18.6663 262.311 19.8566 261.748 20.9457C261.939 20.4371 262.577 21.2593 262.406 21.7737L260.916 26.2624C263.366 25.4379 266.415 27.1073 266.788 29.4783C266.958 24.2646 267.547 18.2862 272.155 15.2334C274.479 13.6939 277.42 13.224 280.25 12.8066C282.86 12.4216 285.597 12.0545 288.097 12.8432C290.598 13.632 292.727 15.9789 292.16 18.3491C293.313 17.9846 294.602 18.722 295.172 19.7115C295.742 20.701 295.772 21.8682 295.789 22.9872C297.018 23.7844 298.417 22.2015 298.917 20.899C300.093 17.8419 301.138 14.5875 300.505 11.398C299.871 8.20854 297.04 5.1605 293.507 5.14968C293.936 4.71745 294.165 4.1491 294.145 3.56484L291.234 3.33906C291.973 3.24301 292.653 2.91408 293.156 2.40863C291.988 3.58917 282.797 0.115497 280.906 0.0534784Z" fill="#2F2E41"/>
<path d="M280.061 46.5657C280.061 46.5657 272.268 39.5568 269.463 39.9861C266.659 40.4155 262.83 46.5657 262.83 46.5657C262.83 46.5657 239.855 53.5944 240.812 60.6232C241.769 67.652 252.299 101.917 252.299 101.917C252.299 101.917 260.915 143.211 253.257 147.604C245.598 151.997 289.634 163.419 290.591 158.148C291.548 152.876 293.463 100.16 290.591 92.2527C287.719 84.3453 280.061 46.5657 280.061 46.5657Z" fill="#3F3D56"/>
<path d="M313.566 60.6232H325.403C325.403 60.6232 333.669 94.0099 334.626 97.5243C335.583 101.039 337.498 117.732 336.541 117.732C335.583 117.732 316.438 114.218 316.438 116.853L313.566 60.6232Z" fill="#3F3D56"/>
<path d="M313.165 143.3H267.85C263.428 124.629 263.059 106.591 267.85 89.3564H313.165C305.852 106.281 305.395 124.196 313.165 143.3Z" fill="#F2F2F2"/>
<path d="M249.428 120.368L262.83 125.639C262.83 125.639 288.676 129.154 288.676 119.489C288.676 109.825 262.83 115.096 262.83 115.096L254.213 112.568L249.428 120.368Z" fill="#A0616A"/>
<path d="M252.299 55.3516L240.812 57.9874L232.196 104.553C232.196 104.553 229.325 116.853 234.111 117.732C238.897 118.611 252.299 125.639 252.299 125.639C252.299 125.639 254.214 112.46 258.043 112.46L248.47 105.432L254.214 74.6808L252.299 55.3516Z" fill="#3F3D56"/>
<path d="M89.8436 145.321H27.0311V146.144H89.8436V145.321Z" fill="#F2F2F2"/>
<path d="M44.9775 137.908H44.0802V145.526H44.9775V137.908Z" fill="#F2F2F2"/>
<path d="M72.3459 137.908H71.4485V145.526H72.3459V137.908Z" fill="#F2F2F2"/>
<path d="M111.828 23.4335H49.0155V24.2571H111.828V23.4335Z" fill="#F2F2F2"/>
<path d="M94.7789 24.0512H93.8816V31.6691H94.7789V24.0512Z" fill="#F2F2F2"/>
<path d="M67.4106 24.0512H66.5133V31.6691H67.4106V24.0512Z" fill="#F2F2F2"/>
<path d="M175.089 104.554H112.277V105.378H175.089V104.554Z" fill="#F2F2F2"/>
<path d="M158.04 105.172H157.143V112.79H158.04V105.172Z" fill="#F2F2F2"/>
<path d="M130.672 105.172H129.774V112.79H130.672V105.172Z" fill="#F2F2F2"/>
<path d="M68.3079 104.142H5.49542V104.966H68.3079V104.142Z" fill="#F2F2F2"/>
<path d="M51.2588 104.76H50.3615V112.378H51.2588V104.76Z" fill="#F2F2F2"/>
<path d="M23.8905 104.76H22.9932V112.378H23.8905V104.76Z" fill="#F2F2F2"/>
<path d="M143.683 62.9644H80.8704V63.788H143.683V62.9644Z" fill="#F2F2F2"/>
<path d="M98.8168 55.5524H97.9195V63.1703H98.8168V55.5524Z" fill="#F2F2F2"/>
<path d="M126.185 55.5524H125.288V63.1703H126.185V55.5524Z" fill="#F2F2F2"/>
</g>
<defs>
<clipPath id="clip0">
<rect width="402" height="308" fill="white"/>
</clipPath>
</defs>
</svg>
